<?xml version="1.0" standalone="no"?>
<!DOCTYPE svg PUBLIC "-//W3C//DTD SVG 20010904//EN"
 "http://www.w3.org/TR/2001/REC-SVG-20010904/DTD/svg10.dtd">
<svg version="1.0" xmlns="http://www.w3.org/2000/svg"
 width="105.000000pt" height="105.000000pt" viewBox="0 0 105.000000 105.000000"
 preserveAspectRatio="xMidYMid meet">

<g transform="translate(0.000000,105.000000) scale(0.100000,-0.100000)"
fill="#000000" stroke="none">
<path d="M390 1011 c-184 -59 -320 -199 -360 -373 -12 -56 -12 -181 1 -237 23
-103 97 -214 183 -280 211 -158 497 -135 675 54 188 202 186 509 -6 702 -131
131 -332 186 -493 134z m239 -46 c166 -39 305 -184 340 -353 48 -230 -100
-470 -326 -529 -39 -10 -88 -14 -148 -11 -75 3 -101 9 -158 36 -95 44 -178
126 -225 222 -37 74 -37 76 -36 195 0 115 2 123 33 188 97 200 307 302 520
252z"/>
<path d="M303 844 c-156 -106 -211 -307 -133 -488 29 -68 146 -186 185 -186 6
0 25 28 41 62 23 48 26 62 15 66 -27 9 -93 76 -112 113 -36 72 -47 69 226 69
189 0 245 -3 245 -12 0 -29 -64 -121 -100 -146 -22 -15 -39 -33 -40 -40 0 -20
49 -112 61 -112 20 0 98 60 133 103 63 78 80 129 81 247 0 93 -3 111 -27 162
-31 67 -100 144 -156 176 l-40 22 -30 -62 c-26 -55 -28 -64 -14 -73 61 -39
132 -131 132 -171 0 -5 -97 -8 -242 -7 l-243 3 2 25 c2 35 56 109 98 135 19
12 35 23 35 25 0 11 -54 125 -59 125 -3 -1 -30 -17 -58 -36z"/>
</g>
</svg>
