<?xml version="1.0"?><svg version="1.2" baseProfile="tiny-ps" viewBox="0 0 105 105" xmlns="http://www.w3.org/2000/svg" xmlns:xlink="http://www.w3.org/1999/xlink"><title>HACKTION</title><g><g fill="#fcfcfc" transform="matrix(.1 0 0 -.1 0 105)"><path d="M0 525V0h1050v1050H0V525z"/></g><g fill="#d6d6d6" transform="matrix(.1 0 0 -.1 0 105)"><path d="M364 1012c-29-10-77-34-109-53l-57-34-54-59-54-60-30-63c-38-80-49-131-50-218v-70l14-56 13-56 38-69 39-69 48-47c59-57 118-93 205-125l64-23h184l56 19c89 30 134 57 204 122l65 61 39 78 39 78 13 72 13 73-12 81-12 81-36 72-35 72-53 54-54 54-58 36c-33 19-83 42-113 51l-55 16H516l-101-1-51-17zm271-57c32-9 80-27 107-42l48-26 55-58 56-58 30-66 31-65 5-78 6-78-12-54c-6-30-24-79-39-109l-27-55-47-51-47-52-58-30-58-31-77-18-78-18-65 13c-37 6-90 21-120 32l-54 20-68 63-69 64-34 69-35 68v250l33 66 32 66 41 47 41 46 59 35c33 19 83 41 112 49l52 14 60 1 61 1 59-15zM302 853l-54-36-39-52c-47-62-68-110-80-184l-9-55 11-65 10-65 25-51 25-50 42-43c49-51 83-77 114-86l22-7 32 67 32 68-18 10c-58 34-125 117-125 156v10h470v-7c0-5-14-32-31-61l-30-54-43-26-43-27 30-65c16-36 31-67 33-69 8-9 74 29 113 64 22 20 53 57 69 83l30 47 17 60 18 59-6 77-5 78-25 55-26 56-50 53c-27 29-68 63-90 75l-41 23-34-70-34-71 31-19c46-28 84-70 101-113l16-37-235-3-236-3 6 25c3 14 17 42 31 62l24 37 40 23c22 13 40 26 40 29 0 14-61 139-68 139-4-1-31-17-60-37z"/></g><g fill="#a3a3a3" transform="matrix(.1 0 0 -.1 0 105)"><path d="M415 1023c-11-2-29-8-40-12-11-5-40-17-65-27C173 926 63 789 26 626 5 539 6 491 29 404l18-71 29-53c16-30 48-75 72-101l43-48 62-39c75-47 139-70 222-78l61-6 73 12 72 12 67 34 67 33 51 48c27 26 64 69 82 94l32 47 26 78 26 79v75l1 75-21 71-22 71-38 59c-68 105-161 176-281 214l-64 20-86-1c-47-1-95-3-106-6zm200-58c33-9 83-26 110-39l50-23 50-45 50-46 33-55 33-55 15-54 14-53V435l-24-67-24-67-36-50-37-50-47-34c-69-50-119-74-190-87l-63-13-71 6-71 6-71 34c-82 39-130 78-181 147l-36 48-19 58-20 58-6 65-6 66 16 69 17 69 29 52 30 52 53 50c60 57 115 88 202 114 76 22 125 23 200 4zm-281-95c-11-4-46-31-77-60l-57-52-32-66-32-67-4-85-4-85 21-55c12-31 34-77 51-103l29-46 62-46c34-25 65-45 69-45s20 30 36 67l28 66-18 11c-44 26-74 58-100 106-15 28-26 53-23 56 2 3 111 6 241 7l236 2v-13c0-39-87-149-130-164l-12-4 31-67 30-68 33 17c17 9 55 38 83 65l52 49 26 54c15 30 32 78 38 107l11 52-6 60-7 59-25 56c-31 71-81 132-140 171-58 38-67 38-81 4-6-16-18-44-26-64l-16-37 40-26 40-27 30-46c16-26 29-55 29-65v-18H520c-132 0-240 2-240 5s11 27 24 54l25 48 36 31c20 18 40 32 45 32 16 0 12 24-15 84-26 59-27 60-61 46z"/></g><g fill="#686868" transform="matrix(.1 0 0 -.1 0 105)"><path d="M372 1004C200 946 78 819 35 655l-15-59v-76c1-94 12-144 52-226l32-65 50-52c28-29 73-67 99-84l48-31 72-23 72-23h160l55 18c30 10 81 32 113 49l58 30 59 63 59 63 29 63c53 112 65 219 37 337l-16 64-32 61-32 60-52 53c-63 62-116 95-211 128l-72 25h-77l-78-1-73-25zm257-39l64-16 57-34 56-34 53-56 52-55 23-52c13-29 29-84 36-121l14-68-13-77-13-77-31-60-32-60-55-55-55-55-50-26c-28-15-75-32-106-39l-57-13-84 5-84 4-67 32-68 31-59 56-58 56-39 77-38 77v220l23 61 23 60 45 58 45 57 67 43 67 44 65 15c84 20 140 20 219 2zM303 845l-52-35-35-46c-41-53-72-131-82-201l-6-50 12-58c17-82 43-137 87-186 42-47 109-99 128-99h11l30 62 29 61-14 5c-45 15-131 124-131 167v15h491l-6-22c-4-13-18-43-32-66l-25-44-43-30-43-30 27-59 26-58 13-1c24 0 102 60 142 111l39 49 21 57 22 58-4 90-3 90-27 57-27 57-45 48c-24 27-62 59-84 71l-40 22-30-62-30-63 16-10c8-5 32-25 53-43l38-33 22-45c12-25 19-47 16-50-2-3-112-5-243-5l-239 1 2 25 2 25 30 44 31 44 35 22c19 12 35 23 35 25 0 11-54 125-59 125-3 0-30-16-58-35z"/></g><g fill="#404040" transform="matrix(.1 0 0 -.1 0 105)"><path d="M353 996c-82-31-155-78-205-135l-41-46-39-82-40-82-5-85-6-85 13-63 12-62 35-66 35-65 56-57 55-57 56-29c31-17 83-37 116-47l60-17h71l71 1 72 21 71 22 58 37 57 37 43 49 42 48 34 68 34 68 12 72 13 73-12 81-11 80-30 60c-37 74-90 139-153 190l-49 38-62 26-61 26-120 2-120 3-62-24zm269-27l53-11 60-31 60-32 52-52 52-53 35-72 36-73 6-77 7-77-12-61-12-60-31-60-30-60-64-59-63-60-47-21c-64-28-153-50-202-50h-40l-81 23-80 24-43 29c-24 16-64 50-89 76l-46 48-34 67-34 68v250l32 66 33 67 46 51 45 50 58 36 58 35 59 14c73 18 147 19 216 5zm33-151l-28-62 24-15c55-35 118-125 119-168v-13l-245-3-245-3 247 1h248l3 28 3 28-25 44c-14 24-43 58-65 77l-39 33 15 38 15 37h43l36-33c20-17 52-56 72-85l36-53 8-37c4-20 8-76 8-123v-86l-12-27c-7-14-19-38-25-53-7-16-39-54-70-86l-56-57h-32l-20 40-20 39 41 33 41 33 21 40c12 22 25 49 28 60l6 20-9 18-9 17H280v-21l245 3 245 3v-15c0-8-9-33-19-55l-18-40-40-36c-22-20-46-38-54-41l-14-5 24-54c14-30 28-58 33-63l8-10 52 37c64 44 100 88 136 165l27 57-1 95v95l-22 56-22 56-53 56c-28 30-68 64-88 76l-36 21-28-62zm-351 23c-59-43-100-90-131-151l-28-55V415l26-56 27-56 38-42c34-39 120-98 128-90 2 2 15 29 29 59l26 55-27 20c-15 11-41 35-59 54l-33 34-11 36c-6 20-16 41-21 46l-10 10 7-35c9-43 54-110 97-143l31-25-17-46-18-46-21 11c-12 6-46 36-76 66l-53 55-25 57-26 56v174l37 75 37 75 52 45c28 26 55 46 59 46 11 0 48-62 48-80v-16l-42-27c-23-15-39-27-35-27 5 0-5-19-21-42l-28-43 4-18 4-18 24 50 25 50 33 28c18 15 40 33 49 38l17 10-27 58-26 57h-12c-7 0-30-13-51-29z"/></g><g fill="#0b0b0b" transform="matrix(.1 0 0 -.1 0 105)"><path d="M370 1002c-86-29-156-75-223-147l-37-40-36-70-35-69-11-76-12-76 11-75 11-74 33-69 33-68 48-53c61-67 126-109 218-140l74-25h152l55 16c75 22 116 42 176 86l53 38 39 53c21 28 50 77 64 107l26 55 11 80 11 80-15 78-15 77-37 70-37 70-61 57-61 56-75 36-75 36-115 2-115 3-55-18zm281-37c90-31 130-56 200-126l45-45 31-57c17-31 37-80 43-108l13-52-5-89-6-89-35-72-36-72-33-35c-18-20-55-52-82-73l-49-37-79-25-79-25H475l-68 19c-37 11-92 34-122 51l-54 31-46 52-46 52-30 65-31 64-10 63-10 63 11 71 11 70 34 67 34 67 53 51c69 64 96 82 172 110l62 23h86l86 1 44-15zM303 841c-70-51-153-170-153-221 0-8 11 10 23 41 36 86 110 171 170 192l18 7 9-25c14-36 21-31 9 5l-11 30h-12c-7 0-31-13-53-29zm374 22c-4-3-7-11-7-16v-9l13 11 14 11 44-30 45-29 32-45c18-25 41-64 52-88s20-37 20-30c1 45-86 163-149 204-48 30-54 32-64 21zm-30-70l-16-38 16-10c9-5 31-22 49-38l32-27 21-43c12-23 21-36 21-28 0 23-40 79-83 116l-41 36 12 31c17 45 7 46-11 1zm-252-13l6-25-40-30c-21-17-45-39-51-50l-12-20 38 36c22 20 49 42 61 50l21 15-14 24-14 25 5-25zM277 623c-4-3-7-13-7-22l1-16 10 18c11 19 8 33-4 20zm618-103V415l9 53 9 52-9 53-9 52V520zm-751-11l2-95 29-59 30-59 48-48c42-42 105-86 111-76 13 22 36 81 33 84-2 2-12-14-22-35l-18-40-27 14c-15 8-50 39-77 69l-51 55-23 48-23 47-7 96-7 95 2-96zm258 44c65-2 171-2 235 0 65 1 12 3-117 3s-182-2-118-3zm10-70c59-2 158-2 220 0l113 3H525c-121 0-172-2-113-3zm339-70c-15-35-47-72-88-101l-31-22 5-20c3-11 10-23 15-26l9-6-6 25-6 24 41 33 41 32 20 40c11 22 18 42 16 44-2 3-10-8-16-23zm-471 10c0-6 9-21 21-34l20-24-17 30c-24 39-24 40-24 28zm588-52c-9-22-15-41-12-41 8 0 35 62 32 72l-4 11-16-42zm-523-38c17-15 38-36 47-46l17-17 5 8 5 8-52 38-52 38 30-29zm472-49c-32-39-103-94-123-94h-13l-6 21c-4 11-9 18-11 16-3-2 1-16 7-30l12-26 36 19 36 18 48 51c41 44 54 61 45 61-2 0-16-16-31-36z"/></g></g></svg>